<svg version="1.1" xmlns="http://www.w3.org/2000/svg" xmlns:xlink="http://www.w3.org/1999/xlink" width="24" height="24" viewBox="0,0,256,256"><g fill="#000000" fill-rule="evenodd" stroke="none" stroke-width="1" stroke-linecap="butt" stroke-linejoin="miter" stroke-miterlimit="10" stroke-dasharray="" stroke-dashoffset="0" font-family="none" font-weight="none" font-size="none" text-anchor="none" style="mix-blend-mode: normal"><g transform="translate(-0.00267,0) scale(10.66667,10.66667)"><path d="M16.3087,3.34659c0.5133,-0.74389 1.2027,-1.34659 2.0812,-1.34659c0.3345,0 0.6057,0.25342 0.6057,0.56604v13.76396c0.0032,0.0237 0.0049,0.0479 0.0049,0.0724v5.0314c0,0.3126 -0.2712,0.566 -0.6057,0.566c-0.3346,0 -0.6057,-0.2534 -0.6057,-0.566v-4.4653h-3.4373c-0.3345,0 -0.6057,-0.2534 -0.6057,-0.566c0,-3.8563 0.4553,-7.36788 1.2037,-9.93282c0.3731,-1.27842 0.8281,-2.35392 1.3589,-3.12309zM14.9609,15.8365h2.8233v-12.41311c-0.1403,0.12539 -0.2936,0.29936 -0.4574,0.53673c-0.4356,0.63114 -0.8506,1.58191 -1.2082,2.80739c-0.6771,2.32044 -1.1155,5.51059 -1.1577,9.06899zM5,7.59746v0.00033v0.00032v1.88679c0,1.5096 1.16124,2.766 2.69531,3.0305v8.9186c0,0.3126 0.27119,0.566 0.60571,0.566c0.33453,0 0.60572,-0.2534 0.60572,-0.566v-8.9197c1.53086,-0.267 2.68876,-1.5219 2.68876,-3.0294v-1.88679c0,-0.01268 -0.0004,-0.02525 -0.0013,-0.03772v-4.99435c0,-0.31262 -0.2712,-0.56604 -0.6057,-0.56604c-0.3345,0 -0.6057,0.25342 -0.6057,0.56604v4.46603h-1.47606v-4.46603c0,-0.31262 -0.27119,-0.56604 -0.60572,-0.56604c-0.33452,0 -0.60571,0.25342 -0.60571,0.56604v4.46603h-1.48389v-4.46603c0,-0.31262 -0.27118,-0.56604 -0.60571,-0.56604c-0.33452,0 -0.60571,0.25342 -0.60571,0.56604zM8.30102,11.434c0.00813,0 0.01621,0.0001 0.02426,0.0004c1.14007,-0.0137 2.05882,-0.8813 2.05882,-1.9495v-1.32075h-4.17268v1.32075c0,1.0698 0.9215,1.9383 2.06389,1.9496c0.00853,-0.0004 0.0171,-0.0005 0.02571,-0.0005z"></path></g></g></svg>