<svg width="24" height="24" viewBox="0 0 24 24" fill="none" xmlns="http://www.w3.org/2000/svg">
<path fill-rule="evenodd" clip-rule="evenodd" d="M9.21148 1.72858C9.41704 1.50495 9.76497 1.4903 9.98861 1.69586C10.7153 2.36379 11.2321 3.2993 11.5984 4.25936C11.9707 3.51809 12.6724 2.72318 13.5883 2.19012C14.7392 1.52032 16.2603 1.24675 17.9237 2.01669L18.3065 2.19386L18.2347 2.6095C18.076 3.52761 17.7802 4.25348 17.346 4.79767C16.9062 5.34892 16.3488 5.68266 15.7273 5.84954C14.5965 6.1532 13.2647 5.90018 11.9972 5.51151C12.2011 6.28665 12.328 7.03967 12.3992 7.65791C12.4326 7.65681 12.4662 7.65625 12.4999 7.65625C13.4435 7.65625 14.2812 8.09249 14.8075 8.76695C15.3338 8.09249 16.1716 7.65625 17.1151 7.65625C18.7083 7.65625 19.9998 8.8999 19.9998 10.434C19.9998 11.968 18.7086 13.2115 17.1157 13.2118C17.4783 13.6762 17.6931 14.2536 17.6931 14.8793C17.6931 16.4135 16.4016 17.6571 14.8085 17.6571H14.8072C15.1697 18.1215 15.3846 18.6989 15.3846 19.3247C15.3846 20.8588 14.093 22.1024 12.4999 22.1024C10.9067 22.1024 9.61523 20.8588 9.61523 19.3247C9.61523 18.6989 9.83009 18.1215 10.1926 17.6571C8.59977 17.6568 7.30859 16.4133 7.30859 14.8793C7.30859 14.2536 7.52345 13.6762 7.88599 13.2118H7.88466C6.29151 13.2118 5 11.9682 5 10.434C5 8.8999 6.29151 7.65625 7.88466 7.65625C8.82822 7.65625 9.66598 8.09249 10.1923 8.76695C10.4839 8.39321 10.8712 8.09262 11.3191 7.89887C11.2569 7.31344 11.1366 6.56112 10.9308 5.78155C10.5925 4.49969 10.049 3.24547 9.24421 2.50571C9.02057 2.30015 9.00592 1.95222 9.21148 1.72858ZM12.4741 8.76745H12.2903C11.4958 8.8532 10.896 9.42081 10.7497 10.108C10.7626 10.215 10.7693 10.3237 10.7693 10.434C10.7693 10.5443 10.7626 10.6531 10.7497 10.76C10.9086 11.5065 11.6025 12.1118 12.4999 12.1118C13.3973 12.1118 14.0911 11.5065 14.2501 10.76C14.2371 10.6531 14.2305 10.5443 14.2305 10.434C14.2305 10.3237 14.2371 10.215 14.2501 10.108C14.0911 9.36159 13.3973 8.75625 12.4999 8.75625L12.4741 8.75642L12.4741 8.76745ZM9.63489 10.76C9.47591 11.5065 8.78207 12.1118 7.88466 12.1118C6.85951 12.1118 6.1 11.3219 6.1 10.434C6.1 9.54619 6.85951 8.75625 7.88466 8.75625C8.78207 8.75625 9.47591 9.36159 9.63489 10.108C9.62191 10.215 9.61523 10.3237 9.61523 10.434C9.61523 10.5443 9.62191 10.6531 9.63489 10.76ZM10.1923 12.1011L10.1919 12.1016L10.1926 12.1016L10.1923 12.1011ZM12.5012 16.5469L12.5009 16.5464L12.5005 16.5469L12.5012 16.5469ZM11.9238 14.8793C11.9238 14.7691 11.9305 14.6603 11.9435 14.5533C11.7845 13.8069 11.0907 13.2016 10.1933 13.2016C9.1681 13.2016 8.40859 13.9915 8.40859 14.8793C8.40859 15.7672 9.1681 16.5571 10.1933 16.5571C11.0907 16.5571 11.7845 15.9518 11.9435 15.2053C11.9305 15.0984 11.9238 14.9896 11.9238 14.8793ZM13.0779 14.8793C13.0779 14.9896 13.0712 15.0984 13.0583 15.2053C13.2172 15.9518 13.9111 16.5571 14.8085 16.5571C15.8336 16.5571 16.5931 15.7672 16.5931 14.8793C16.5931 13.9915 15.8336 13.2016 14.8085 13.2016C13.9111 13.2016 13.2172 13.8069 13.0583 14.5533C13.0712 14.6603 13.0779 14.7691 13.0779 14.8793ZM12.5005 13.2118L12.5009 13.2123L12.5012 13.2118H12.5005ZM14.8075 12.1011L14.8079 12.1016L14.8072 12.1016L14.8075 12.1011ZM15.3649 10.76C15.3779 10.6531 15.3846 10.5443 15.3846 10.434C15.3846 10.3237 15.3779 10.215 15.3649 10.108C15.5239 9.36159 16.2177 8.75625 17.1151 8.75625C18.1403 8.75625 18.8998 9.54619 18.8998 10.434C18.8998 11.3219 18.1403 12.1118 17.1151 12.1118C16.2177 12.1118 15.5239 11.5065 15.3649 10.76ZM14.2846 19.3247C14.2846 20.2125 13.525 21.0024 12.4999 21.0024C11.4747 21.0024 10.7152 20.2125 10.7152 19.3247C10.7152 18.4368 11.4747 17.6469 12.4999 17.6469C13.525 17.6469 14.2846 18.4368 14.2846 19.3247ZM15.4421 4.78717C14.7061 4.9848 13.7615 4.86638 12.6839 4.56638C12.9753 4.07724 13.4768 3.52776 14.1417 3.14083C14.9324 2.68061 15.9305 2.46302 17.0603 2.85284C16.9192 3.41577 16.7178 3.82127 16.4862 4.11162C16.2048 4.46423 15.8561 4.67599 15.4421 4.78717Z" fill="#101A33"/>
</svg>
