<svg width="24" height="24" viewBox="0 0 24 24" fill="none" xmlns="http://www.w3.org/2000/svg">
<path d="M3 3.73921H18.6522L21 6.34791L18.6522 8.9566H3L5.34783 6.34791L3 3.73921Z" stroke="#101A33" stroke-width="1.2" stroke-linecap="round" stroke-linejoin="round"/>
<path d="M12.3879 3.90476V2H10.5103V3.90476" stroke="#101A33" stroke-width="1.2" stroke-linejoin="round"/>
<path d="M12.3879 8.66667V22H10.5103V8.66667" stroke="#101A33" stroke-width="1.2" stroke-linejoin="round"/>
<path d="M6.76297 21.9999L6.17057 22.0951L6.2517 22.5999H6.76297V21.9999ZM4.87708 18.5015L5.10615 17.9469L3.24358 17.1775L4.38198 18.8404L4.87708 18.5015ZM7.70006 19.6676L7.47098 20.2222L8.5672 20.675L8.28252 19.5236L7.70006 19.6676ZM6.76297 15.8776L7.19512 15.4613L5.64374 13.8506L6.18051 16.0216L6.76297 15.8776ZM9.10409 18.5015L8.63639 18.8773L9.4139 19.8449L9.68916 18.6345L9.10409 18.5015ZM10.6262 14.5139C10.6997 14.1908 10.4974 13.8693 10.1742 13.7958C9.85111 13.7223 9.5296 13.9247 9.45612 14.2478L10.6262 14.5139ZM7.35537 21.9047C7.30082 21.5653 7.12643 21.1551 6.94058 20.778C6.74623 20.3838 6.50613 19.9612 6.27593 19.5775C6.04491 19.1926 5.81951 18.8397 5.65215 18.5834C5.56835 18.4551 5.49882 18.3505 5.45003 18.2778C5.42563 18.2414 5.40641 18.2129 5.39317 18.1934C5.38654 18.1836 5.38142 18.1761 5.37788 18.1709C5.37612 18.1683 5.37475 18.1663 5.37379 18.1649C5.37332 18.1642 5.37294 18.1637 5.37267 18.1633C5.37253 18.1631 5.37243 18.1629 5.37234 18.1628C5.3723 18.1627 5.37226 18.1627 5.37224 18.1626C5.3722 18.1626 5.37217 18.1625 4.87708 18.5015C4.38198 18.8404 4.38196 18.8404 4.38195 18.8404C4.38196 18.8404 4.38195 18.8404 4.38197 18.8404C4.38199 18.8404 4.38204 18.8405 4.38211 18.8406C4.38226 18.8408 4.38251 18.8412 4.38286 18.8417C4.38357 18.8427 4.38469 18.8444 4.3862 18.8466C4.38922 18.851 4.39383 18.8578 4.39991 18.8668C4.41208 18.8847 4.43017 18.9115 4.45338 18.9461C4.4998 19.0153 4.56661 19.1158 4.64741 19.2395C4.80926 19.4874 5.02604 19.8268 5.24698 20.195C5.46873 20.5645 5.69033 20.9558 5.86424 21.3086C6.04663 21.6786 6.14702 21.9486 6.17057 22.0951L7.35537 21.9047ZM4.87708 18.5015C4.87708 18.5015 4.648 19.056 4.648 19.056C4.648 19.056 4.648 19.056 4.648 19.056C4.648 19.056 4.648 19.056 4.648 19.056C4.648 19.056 4.648 19.056 4.648 19.056C4.64801 19.056 4.64799 19.056 4.648 19.056C4.648 19.056 4.648 19.056 4.648 19.056C4.64801 19.056 4.64801 19.056 4.64801 19.056C4.64809 19.0561 4.64797 19.056 4.64808 19.0561C4.649 19.0564 4.64752 19.0558 4.64869 19.0563C4.64879 19.0564 4.64914 19.0565 4.64934 19.0566C4.65309 19.0581 4.64646 19.0554 4.65032 19.057C4.65383 19.0584 4.6494 19.0566 4.65351 19.0583C4.673 19.0664 4.65608 19.0594 4.69211 19.0742C4.75347 19.0996 4.70794 19.0808 4.79687 19.1175C4.81124 19.1235 4.9479 19.1799 5.00087 19.2018C5.03685 19.2167 4.99832 19.2007 5.035 19.2159C5.05165 19.2228 5.03602 19.2163 5.05286 19.2233C5.05425 19.2238 5.06055 19.2264 5.06199 19.227C5.06619 19.2288 5.06701 19.2291 5.07126 19.2309C5.11463 19.2488 5.06559 19.2285 5.10971 19.2468C5.13739 19.2582 5.12199 19.2518 5.15043 19.2636C5.15424 19.2651 5.18887 19.2795 5.19347 19.2814C5.22421 19.2941 5.18494 19.2778 5.21588 19.2906C5.21778 19.2914 5.21968 19.2922 5.22158 19.293C5.22349 19.2938 5.2254 19.2945 5.22732 19.2953C5.22915 19.2961 5.23702 19.2993 5.2389 19.3001C5.24014 19.3006 5.33261 19.3388 5.3372 19.3407C5.37114 19.3547 5.31621 19.3321 5.35021 19.3461C5.35239 19.347 5.35457 19.3479 5.35677 19.3488C5.35896 19.3497 5.36116 19.3506 5.36337 19.3515C5.38435 19.3602 5.35567 19.3484 5.3767 19.357C5.37894 19.358 5.38118 19.3589 5.38343 19.3598C5.38568 19.3608 5.38793 19.3617 5.3902 19.3626C5.40517 19.3688 5.42997 19.379 5.44584 19.3856C5.46485 19.3935 5.48427 19.4015 5.50419 19.4097C5.5177 19.4153 5.50565 19.4103 5.51921 19.4159C5.53613 19.4229 5.51744 19.4152 5.53441 19.4222C5.53696 19.4232 5.53951 19.4243 5.54207 19.4254C5.54464 19.4264 5.5472 19.4275 5.54978 19.4285C5.55236 19.4296 5.55494 19.4307 5.55753 19.4317C5.56012 19.4328 5.56272 19.4339 5.56533 19.435C5.62089 19.4579 5.57279 19.438 5.62931 19.4614C5.63203 19.4625 5.63477 19.4636 5.63751 19.4648C5.64025 19.4659 5.643 19.467 5.64575 19.4682C5.65212 19.4708 5.65595 19.4724 5.66238 19.4751C5.69464 19.4884 5.64687 19.4686 5.67919 19.482C5.69885 19.4901 5.67647 19.4809 5.69619 19.489C5.73177 19.5037 5.79931 19.5316 5.83894 19.548C5.84204 19.5493 5.84515 19.5506 5.84827 19.5518C5.85139 19.5531 5.85451 19.5544 5.85765 19.5557C5.86078 19.557 5.86392 19.5583 5.86707 19.5596C5.87022 19.5609 5.87338 19.5622 5.87655 19.5635C5.87972 19.5648 5.88289 19.5661 5.88607 19.5675C5.88926 19.5688 5.89245 19.5701 5.89564 19.5714C5.94099 19.5901 5.86953 19.5606 5.91494 19.5794C5.9587 19.5975 5.94927 19.5936 5.9941 19.6121C6.0136 19.6201 6.0559 19.6376 6.07649 19.6461C6.09541 19.6539 6.07861 19.647 6.0976 19.6548C6.10114 19.6563 6.10468 19.6578 6.10824 19.6592C6.11179 19.6607 6.11535 19.6622 6.11892 19.6636C6.16688 19.6835 6.11394 19.6616 6.16218 19.6815C6.16735 19.6837 6.17889 19.6884 6.18412 19.6906C6.1878 19.6921 6.19148 19.6936 6.19518 19.6951C6.19887 19.6967 6.20257 19.6982 6.20628 19.6997C6.21946 19.7052 6.23776 19.7127 6.25123 19.7183C6.25501 19.7199 6.2588 19.7214 6.2626 19.723C6.2664 19.7246 6.2702 19.7261 6.27402 19.7277C6.29371 19.7359 6.27727 19.7291 6.29703 19.7372C6.30088 19.7388 6.30475 19.7404 6.30862 19.742C6.31249 19.7436 6.31637 19.7452 6.32026 19.7468C6.35271 19.7602 6.31118 19.7431 6.3437 19.7565C6.39225 19.7766 6.3424 19.756 6.39124 19.7761C6.40722 19.7827 6.39928 19.7795 6.41534 19.7861C6.465 19.8066 6.38993 19.7756 6.43966 19.7961C6.47697 19.8116 6.42682 19.7908 6.4642 19.8063C6.46831 19.808 6.47243 19.8097 6.47656 19.8114C6.48069 19.8131 6.48482 19.8148 6.48897 19.8165C6.49312 19.8182 6.49727 19.8199 6.50144 19.8217C6.5056 19.8234 6.50978 19.8251 6.51396 19.8268C6.51814 19.8286 6.52234 19.8303 6.52654 19.832C6.53074 19.8338 6.53495 19.8355 6.53917 19.8372C6.80256 19.9461 7.12489 20.0792 7.47098 20.2222L7.92913 19.1131C7.92362 19.1108 7.91812 19.1085 7.91263 19.1063C7.90713 19.104 7.90165 19.1017 7.89618 19.0995C7.86734 19.0875 7.89225 19.0978 7.86349 19.086C7.85765 19.0835 7.8368 19.0749 7.83105 19.0726C7.82566 19.0703 7.82029 19.0681 7.81492 19.0659C7.80956 19.0637 7.80421 19.0615 7.79886 19.0593C7.77119 19.0478 7.69899 19.018 7.67266 19.0071C7.66749 19.005 7.66233 19.0029 7.65717 19.0007C7.65202 18.9986 7.64688 18.9965 7.64174 18.9944C7.63661 18.9922 7.63149 18.9901 7.62638 18.988C7.62126 18.9859 7.61616 18.9838 7.61107 18.9817C7.60598 18.9796 7.6009 18.9775 7.59583 18.9754C7.59076 18.9733 7.5857 18.9712 7.58065 18.9691C7.5756 18.967 7.57056 18.9649 7.56553 18.9629C7.5605 18.9608 7.55548 18.9587 7.55047 18.9567C7.54463 18.9542 7.49637 18.9343 7.49086 18.932C7.47685 18.9262 7.47534 18.9256 7.46142 18.9199C7.45653 18.9178 7.45165 18.9158 7.44679 18.9138C7.44192 18.9118 7.43706 18.9098 7.43222 18.9078C7.42836 18.9062 7.37808 18.8854 7.37455 18.884C7.36978 18.882 7.36503 18.88 7.36028 18.8781C7.35554 18.8761 7.3508 18.8742 7.34608 18.8722C7.31724 18.8603 7.3466 18.8724 7.31784 18.8606C7.31316 18.8586 7.30848 18.8567 7.30381 18.8548C7.29915 18.8528 7.29449 18.8509 7.28985 18.849C7.27675 18.8436 7.2751 18.8429 7.26209 18.8375C7.25748 18.8356 7.25288 18.8337 7.2483 18.8318C7.24371 18.8299 7.23913 18.828 7.23457 18.8262C7.2218 18.8209 7.21997 18.8201 7.20728 18.8149C7.18344 18.805 7.17693 18.8023 7.15341 18.7926C7.14508 18.7892 7.10848 18.7741 7.10046 18.7708C7.07733 18.7612 7.0974 18.7695 7.07434 18.76C7.07 18.7582 7.06568 18.7564 7.06136 18.7546C7.05704 18.7528 7.05274 18.751 7.04844 18.7493C7.04061 18.746 7.03053 18.7419 7.02277 18.7387C6.98234 18.722 7.03769 18.7448 6.99733 18.7282C6.97947 18.7208 6.91448 18.6939 6.89782 18.687C6.89374 18.6854 6.88968 18.6837 6.88563 18.682C6.88157 18.6803 6.87753 18.6787 6.87349 18.677C6.85532 18.6695 6.86749 18.6745 6.84939 18.667C6.84439 18.665 6.83045 18.6592 6.82552 18.6572C6.80513 18.6488 6.82217 18.6558 6.80185 18.6474C6.77275 18.6354 6.73733 18.6208 6.70938 18.6092C6.69111 18.6017 6.63748 18.5795 6.62034 18.5724C6.60847 18.5675 6.54541 18.5415 6.53465 18.537C6.53115 18.5356 6.52765 18.5341 6.52417 18.5327C6.52069 18.5313 6.51721 18.5298 6.51374 18.5284C6.51171 18.5276 6.49501 18.5206 6.49304 18.5198C6.48961 18.5184 6.48619 18.517 6.48277 18.5156C6.47935 18.5142 6.47595 18.5128 6.47255 18.5114C6.44866 18.5015 6.47607 18.5128 6.45226 18.503C6.44889 18.5016 6.44553 18.5002 6.44218 18.4988C6.43884 18.4974 6.4355 18.4961 6.43216 18.4947C6.4133 18.4869 6.43107 18.4942 6.41227 18.4865C6.40898 18.4851 6.40569 18.4838 6.4024 18.4824C6.39912 18.481 6.39585 18.4797 6.39258 18.4783C6.38932 18.477 6.38606 18.4756 6.38281 18.4743C6.37957 18.473 6.37633 18.4716 6.37309 18.4703C6.36986 18.469 6.36664 18.4676 6.36342 18.4663C6.36021 18.465 6.357 18.4636 6.3538 18.4623C6.3506 18.461 6.34741 18.4597 6.34423 18.4584C6.34105 18.457 6.33787 18.4557 6.3347 18.4544C6.28926 18.4357 6.36118 18.4654 6.3158 18.4466C6.28791 18.4351 6.32493 18.4504 6.2971 18.4389C6.20703 18.4017 6.24036 18.4155 6.15435 18.3799C6.14618 18.3766 6.14546 18.3763 6.13735 18.3729C6.11806 18.3649 6.13976 18.3739 6.12054 18.366C6.09568 18.3557 6.11208 18.3625 6.08746 18.3523C6.06401 18.3426 6.04598 18.3352 6.02348 18.3259C6.0151 18.3224 6.01626 18.3229 6.00794 18.3194C6.00536 18.3184 6.00279 18.3173 6.00023 18.3163C5.99767 18.3152 5.99511 18.3141 5.99257 18.3131C5.99002 18.312 5.98748 18.311 5.98495 18.3099C5.98241 18.3089 5.97989 18.3079 5.97737 18.3068C5.97111 18.3042 5.96855 18.3032 5.96235 18.3006C5.95481 18.2975 5.94014 18.2914 5.93283 18.2884C5.9315 18.2879 5.9196 18.283 5.91833 18.2824C5.8948 18.2727 5.92746 18.2862 5.90399 18.2765C5.88427 18.2684 5.86718 18.2613 5.84835 18.2535C5.80189 18.2343 5.86776 18.2615 5.82153 18.2424C5.77483 18.2232 5.84184 18.2508 5.79536 18.2316C5.76821 18.2204 5.79677 18.2322 5.76983 18.2211C5.75583 18.2153 5.75874 18.2165 5.74495 18.2108C5.71245 18.1974 5.72873 18.2041 5.69706 18.191C5.6927 18.1892 5.68978 18.188 5.68547 18.1862C5.68356 18.1854 5.68164 18.1847 5.67974 18.1839C5.67783 18.1831 5.67593 18.1823 5.67404 18.1815C5.65363 18.1731 5.67184 18.1806 5.65163 18.1723C5.62011 18.1592 5.63932 18.1672 5.60858 18.1545C5.56658 18.1371 5.62975 18.1632 5.58794 18.1459C5.58214 18.1436 5.57347 18.14 5.56787 18.1377C5.54508 18.1282 5.55145 18.1309 5.52941 18.1218C5.51392 18.1154 5.52632 18.1205 5.51101 18.1142C5.487 18.1043 5.51699 18.1166 5.49315 18.1068C5.48015 18.1014 5.48866 18.1049 5.47583 18.0996C5.46514 18.0952 5.46954 18.097 5.45903 18.0927C5.45082 18.0893 5.45078 18.0893 5.44274 18.086C5.43862 18.0843 5.43887 18.0844 5.43479 18.0827C5.42692 18.0794 5.4348 18.0827 5.42697 18.0795C5.41198 18.0733 5.41124 18.073 5.39691 18.067C5.37686 18.0588 5.3601 18.0518 5.34255 18.0446C5.32688 18.0381 5.30877 18.0306 5.29543 18.0251C5.28432 18.0205 5.28498 18.0208 5.27442 18.0164C5.26597 18.0129 5.27284 18.0158 5.26452 18.0123C5.26148 18.0111 5.25793 18.0096 5.25502 18.0084C5.18116 17.9779 5.19655 17.9843 5.15026 17.9651C5.11296 17.9497 5.13243 17.9578 5.11167 17.9492C5.09891 17.9439 5.12244 17.9537 5.10985 17.9485C5.10976 17.9484 5.10916 17.9482 5.10911 17.9482C5.10907 17.9481 5.10849 17.9479 5.10848 17.9479C5.10652 17.9471 5.10837 17.9478 5.10684 17.9472C5.10659 17.9471 5.10662 17.9471 5.10644 17.947C5.10593 17.9468 5.10682 17.9472 5.10632 17.947C5.10626 17.947 5.10634 17.947 5.10628 17.947C5.10627 17.947 5.10626 17.947 5.10626 17.947C5.10625 17.947 5.10624 17.947 5.10624 17.947C5.10618 17.9469 5.10619 17.9469 5.10616 17.9469C5.10616 17.9469 5.10616 17.9469 5.10616 17.9469C5.10616 17.9469 5.10616 17.9469 5.10616 17.9469C5.10616 17.9469 5.10616 17.9469 5.10616 17.9469C5.10616 17.9469 5.10615 17.9469 5.10615 17.9469C5.10615 17.9469 5.10615 17.9469 5.10615 17.9469C5.10615 17.9469 5.10615 17.9469 5.10615 17.9469C5.10615 17.9469 4.87708 18.5015 4.87708 18.5015ZM8.28252 19.5236L7.34543 15.7336L6.18051 16.0216L7.1176 19.8116L8.28252 19.5236ZM6.76297 15.8776C6.33082 16.2938 6.33081 16.2938 6.33081 16.2938C6.33081 16.2938 6.33082 16.2938 6.33083 16.2938C6.33085 16.2938 6.3309 16.2939 6.33097 16.294C6.3311 16.2941 6.33132 16.2943 6.33162 16.2946C6.33223 16.2953 6.33317 16.2962 6.33444 16.2976C6.33697 16.3002 6.34082 16.3042 6.34592 16.3095C6.35612 16.3202 6.37134 16.3361 6.39111 16.3568C6.43066 16.3982 6.48843 16.4589 6.56077 16.5355C6.7055 16.6888 6.90828 16.9053 7.14003 17.1579C7.6054 17.665 8.18023 18.3096 8.63639 18.8773L9.5718 18.1256C9.09087 17.5271 8.49514 16.8598 8.02422 16.3466C7.78782 16.0889 7.58103 15.8681 7.43321 15.7116C7.35928 15.6333 7.30003 15.571 7.25914 15.5282C7.23869 15.5068 7.22283 15.4902 7.21201 15.4789C7.2066 15.4733 7.20245 15.469 7.19961 15.466C7.19819 15.4645 7.19711 15.4634 7.19635 15.4626C7.19598 15.4622 7.19569 15.4619 7.19548 15.4617C7.19538 15.4616 7.19529 15.4615 7.19523 15.4615C7.1952 15.4614 7.19517 15.4614 7.19516 15.4614C7.19513 15.4614 7.19512 15.4613 6.76297 15.8776ZM9.68916 18.6345L10.6262 14.5139L9.45612 14.2478L8.51903 18.3684L9.68916 18.6345ZM6.76297 22.5999H10.5097V21.3999H6.76297V22.5999Z" fill="#101A33"/>
</svg>
