<svg width="22" height="22" viewBox="0 0 22 22" fill="none" xmlns="http://www.w3.org/2000/svg">
<mask id="mask0_2_74" style="mask-type:luminance" maskUnits="userSpaceOnUse" x="0" y="0" width="22" height="22">
<path d="M0 0H22V22H0V0Z" fill="white"/>
</mask>
<g mask="url(#mask0_2_74)">
<path d="M0.90625 8.25L11.0039 0.805663L21.1016 8.25" stroke="#101A33" stroke-width="1.3" stroke-miterlimit="10" stroke-linecap="square"/>
<path d="M1.98438 7.49805V21.3555H20.0313V7.49805" stroke="#101A33" stroke-width="1.3" stroke-miterlimit="10"/>
<path d="M18.7422 6.53125V2.01953H16.1641V4.59766" stroke="#101A33" stroke-width="1.3" stroke-miterlimit="10"/>
</g>
<path d="M4.55469 9.10937V19.4219" stroke="#101A33" stroke-width="1.3" stroke-miterlimit="10"/>
<path d="M4.55469 14.9102H17.4453V19.4219" stroke="#101A33" stroke-width="1.3" stroke-miterlimit="10"/>
<path d="M17.4453 17.4883H4.55469" stroke="#101A33" stroke-width="1.3" stroke-miterlimit="10"/>
<mask id="mask1_2_74" style="mask-type:luminance" maskUnits="userSpaceOnUse" x="0" y="0" width="22" height="22">
<path d="M0 0H22V22H0V0Z" fill="white"/>
</mask>
<g mask="url(#mask1_2_74)">
<path d="M4.55469 12.332H7.13281C7.84472 12.332 8.42188 12.9091 8.42188 13.6211C8.42188 14.333 7.84472 14.9102 7.13281 14.9102" stroke="#101A33" stroke-width="1.3" stroke-miterlimit="10"/>
<path d="M13.5781 9.75391H8.42188V5.88672H13.5781V9.75391Z" stroke="#101A33" stroke-width="1.3" stroke-miterlimit="10"/>
</g>
</svg>
